<svg width="77" height="43" viewBox="0 0 77 43" fill="none" xmlns="http://www.w3.org/2000/svg">
<path d="M33.0925 0.0755539C30.9309 0.416159 28.455 1.22837 26.3851 2.28949C22.6516 4.18903 19.6778 6.71737 14.5687 12.3243C11.1627 16.0709 8.87013 18.167 6.44659 19.7652C4.33745 21.1538 2.75232 21.7695 0.97069 21.9136C0.35498 21.966 -0.0249269 22.0446 0.00127354 22.1232C0.0798749 22.3721 2.26761 23.394 3.31563 23.6691C4.11475 23.8787 4.75666 23.9442 6.18458 23.9573C8.94873 23.9704 10.2064 23.656 15.4202 21.6516C19.5468 20.0665 22.3634 19.6997 25.5598 20.3154C27.8524 20.7477 29.8436 21.6909 32.896 23.7608C36.5378 26.2236 36.9308 26.4856 38.2277 27.1799C40.9264 28.6209 43.6119 29.2236 46.7953 29.1188C49.8607 29.0009 51.4197 28.5685 56.6205 26.3415C63.2623 23.4988 66.3801 22.8306 72.904 22.8437C74.9346 22.8568 76.5983 22.8044 76.5983 22.752C76.5983 22.6865 76.0612 22.3983 75.4062 22.097C71.4892 20.3023 67.2317 19.4639 62.9086 19.6342C59.4763 19.7783 57.6161 20.1582 52.769 21.7564C48.852 23.0403 47.5551 23.3023 45.2888 23.3023C43.2189 23.3023 42.0399 23.0403 40.5334 22.2542C39.171 21.5468 37.612 19.9748 36.9963 18.6779C35.4374 15.4814 35.7649 12.0754 37.8216 10.0186C39.04 8.8003 40.5203 8.19769 42.3412 8.19769C44.4373 8.19769 46.0486 8.8789 47.7254 10.4509C48.3149 11.0142 48.8389 11.4727 48.8782 11.4727C48.9306 11.4727 48.9306 11.0797 48.8913 10.5819C48.5245 6.37676 46.5464 3.59951 42.446 1.52968C40.1404 0.363758 38.8828 0.0624542 36.0531 0.0100517C34.8348 -0.0161476 33.4986 0.0100517 33.0925 0.0755539Z" fill="#4950CB"/>
<path d="M19.3503 27.7956C19.1669 27.8218 18.4988 27.9135 17.8438 27.9921C17.2019 28.0707 15.9836 28.3066 15.1582 28.5162C13.691 28.8699 9.66924 30.1668 9.18454 30.4419C8.96183 30.5729 8.96183 30.5991 9.30244 30.717C10.6911 31.2541 12.9967 31.634 16.3373 31.896C19.4944 32.158 22.2193 32.8785 24.7345 34.1493C25.4288 34.4899 27.5511 35.813 29.4375 37.0837C33.4331 39.7562 34.9658 40.647 37.0356 41.4854C41.8958 43.4504 46.2713 43.3849 51.1053 41.2627C53.5026 40.2016 55.8214 38.7081 59.699 35.6951C62.2012 33.7431 63.5374 32.8392 65.1618 31.9615C65.6858 31.6864 66.1181 31.4113 66.1181 31.3458C66.1181 31.1755 63.3278 31.2541 62.1488 31.4506C60.6291 31.7257 58.9392 32.2235 57.734 32.7475C57.1969 32.9964 55.9262 33.5466 54.9174 33.9921C50.6992 35.8523 47.3586 36.5597 44.2408 36.2322C40.5203 35.8654 37.5072 34.6602 31.73 31.2672C28.1013 29.1319 26.7388 28.5293 24.4594 28.0314C23.5293 27.8349 20.0577 27.6646 19.3503 27.7956Z" fill="#4950CB"/>
</svg>
